<svg width="657" height="20" viewBox="0 0 657 20" fill="none" xmlns="http://www.w3.org/2000/svg">
<path d="M8.29555 16.16C6.89555 16.16 5.62888 15.8533 4.49555 15.24C3.37555 14.6133 2.49555 13.76 1.85555 12.68C1.21555 11.5867 0.895547 10.36 0.895547 9C0.895547 7.64 1.21555 6.42 1.85555 5.34C2.49555 4.24667 3.38221 3.39333 4.51555 2.78C5.64888 2.15333 6.91555 1.84 8.31555 1.84C9.40888 1.84 10.4089 2.02667 11.3155 2.4C12.2222 2.76 12.9955 3.3 13.6355 4.02L12.3355 5.28C11.2822 4.17333 9.96888 3.62 8.39555 3.62C7.35555 3.62 6.41555 3.85333 5.57555 4.32C4.73555 4.78667 4.07555 5.43333 3.59555 6.26C3.12888 7.07333 2.89555 7.98667 2.89555 9C2.89555 10.0133 3.12888 10.9333 3.59555 11.76C4.07555 12.5733 4.73555 13.2133 5.57555 13.68C6.41555 14.1467 7.35555 14.38 8.39555 14.38C9.95555 14.38 11.2689 13.82 12.3355 12.7L13.6355 13.96C12.9955 14.68 12.2155 15.2267 11.2955 15.6C10.3889 15.9733 9.38888 16.16 8.29555 16.16ZM18.0487 7.18C18.382 6.56667 18.8753 6.1 19.5287 5.78C20.182 5.46 20.9753 5.3 21.9087 5.3V7.16C21.802 7.14667 21.6553 7.14 21.4687 7.14C20.4287 7.14 19.6087 7.45333 19.0087 8.08C18.422 8.69333 18.1287 9.57333 18.1287 10.72V16H16.2087V5.4H18.0487V7.18ZM33.7574 10.76C33.7574 10.9067 33.7441 11.1 33.7174 11.34H25.1174C25.2374 12.2733 25.6441 13.0267 26.3374 13.6C27.0441 14.16 27.9174 14.44 28.9574 14.44C30.2241 14.44 31.2441 14.0133 32.0174 13.16L33.0774 14.4C32.5974 14.96 31.9974 15.3867 31.2774 15.68C30.5708 15.9733 29.7774 16.12 28.8974 16.12C27.7774 16.12 26.7841 15.8933 25.9174 15.44C25.0508 14.9733 24.3774 14.3267 23.8974 13.5C23.4308 12.6733 23.1974 11.74 23.1974 10.7C23.1974 9.67333 23.4241 8.74667 23.8774 7.92C24.3441 7.09333 24.9774 6.45333 25.7774 6C26.5908 5.53333 27.5041 5.3 28.5174 5.3C29.5308 5.3 30.4308 5.53333 31.2174 6C32.0174 6.45333 32.6374 7.09333 33.0774 7.92C33.5308 8.74667 33.7574 9.69333 33.7574 10.76ZM28.5174 6.92C27.5974 6.92 26.8241 7.2 26.1974 7.76C25.5841 8.32 25.2241 9.05333 25.1174 9.96H31.9174C31.8108 9.06667 31.4441 8.34 30.8174 7.78C30.2041 7.20667 29.4374 6.92 28.5174 6.92ZM39.9905 5.3C41.4572 5.3 42.5772 5.66 43.3505 6.38C44.1372 7.1 44.5305 8.17333 44.5305 9.6V16H42.7105V14.6C42.3905 15.0933 41.9305 15.4733 41.3305 15.74C40.7439 15.9933 40.0439 16.12 39.2305 16.12C38.0439 16.12 37.0905 15.8333 36.3705 15.26C35.6639 14.6867 35.3105 13.9333 35.3105 13C35.3105 12.0667 35.6505 11.32 36.3305 10.76C37.0105 10.1867 38.0905 9.9 39.5705 9.9H42.6105V9.52C42.6105 8.69333 42.3705 8.06 41.8905 7.62C41.4105 7.18 40.7039 6.96 39.7705 6.96C39.1439 6.96 38.5305 7.06667 37.9305 7.28C37.3305 7.48 36.8239 7.75333 36.4105 8.1L35.6105 6.66C36.1572 6.22 36.8105 5.88667 37.5705 5.66C38.3305 5.42 39.1372 5.3 39.9905 5.3ZM39.5505 14.64C40.2839 14.64 40.9172 14.48 41.4505 14.16C41.9839 13.8267 42.3705 13.36 42.6105 12.76V11.28H39.6505C38.0239 11.28 37.2105 11.8267 37.2105 12.92C37.2105 13.4533 37.4172 13.8733 37.8305 14.18C38.2439 14.4867 38.8172 14.64 39.5505 14.64ZM54.0437 15.38C53.7637 15.62 53.417 15.8067 53.0037 15.94C52.5903 16.06 52.1637 16.12 51.7237 16.12C50.657 16.12 49.8303 15.8333 49.2437 15.26C48.657 14.6867 48.3637 13.8667 48.3637 12.8V6.98H46.5637V5.4H48.3637V3.08H50.2837V5.4H53.3237V6.98H50.2837V12.72C50.2837 13.2933 50.4237 13.7333 50.7037 14.04C50.997 14.3467 51.4103 14.5 51.9437 14.5C52.5303 14.5 53.0303 14.3333 53.4437 14L54.0437 15.38ZM65.5934 10.76C65.5934 10.9067 65.58 11.1 65.5534 11.34H56.9534C57.0734 12.2733 57.48 13.0267 58.1734 13.6C58.88 14.16 59.7534 14.44 60.7934 14.44C62.06 14.44 63.08 14.0133 63.8534 13.16L64.9134 14.4C64.4334 14.96 63.8334 15.3867 63.1134 15.68C62.4067 15.9733 61.6134 16.12 60.7334 16.12C59.6134 16.12 58.62 15.8933 57.7534 15.44C56.8867 14.9733 56.2134 14.3267 55.7334 13.5C55.2667 12.6733 55.0334 11.74 55.0334 10.7C55.0334 9.67333 55.26 8.74667 55.7134 7.92C56.18 7.09333 56.8134 6.45333 57.6134 6C58.4267 5.53333 59.34 5.3 60.3534 5.3C61.3667 5.3 62.2667 5.53333 63.0534 6C63.8534 6.45333 64.4734 7.09333 64.9134 7.92C65.3667 8.74667 65.5934 9.69333 65.5934 10.76ZM60.3534 6.92C59.4334 6.92 58.66 7.2 58.0334 7.76C57.42 8.32 57.06 9.05333 56.9534 9.96H63.7534C63.6467 9.06667 63.28 8.34 62.6534 7.78C62.04 7.20667 61.2734 6.92 60.3534 6.92ZM77.4905 5.3C78.9572 5.3 80.0772 5.66 80.8505 6.38C81.6372 7.1 82.0305 8.17333 82.0305 9.6V16H80.2105V14.6C79.8905 15.0933 79.4305 15.4733 78.8305 15.74C78.2439 15.9933 77.5439 16.12 76.7305 16.12C75.5439 16.12 74.5905 15.8333 73.8705 15.26C73.1639 14.6867 72.8105 13.9333 72.8105 13C72.8105 12.0667 73.1505 11.32 73.8305 10.76C74.5105 10.1867 75.5905 9.9 77.0705 9.9H80.1105V9.52C80.1105 8.69333 79.8705 8.06 79.3905 7.62C78.9105 7.18 78.2039 6.96 77.2705 6.96C76.6439 6.96 76.0305 7.06667 75.4305 7.28C74.8305 7.48 74.3239 7.75333 73.9105 8.1L73.1105 6.66C73.6572 6.22 74.3105 5.88667 75.0705 5.66C75.8305 5.42 76.6372 5.3 77.4905 5.3ZM77.0505 14.64C77.7839 14.64 78.4172 14.48 78.9505 14.16C79.4839 13.8267 79.8705 13.36 80.1105 12.76V11.28H77.1505C75.5239 11.28 74.7105 11.8267 74.7105 12.92C74.7105 13.4533 74.9172 13.8733 75.3305 14.18C75.7439 14.4867 76.3172 14.64 77.0505 14.64ZM91.2437 5.3C92.5903 5.3 93.657 5.69333 94.4437 6.48C95.2437 7.25333 95.6437 8.39333 95.6437 9.9V16H93.7237V10.12C93.7237 9.09333 93.477 8.32 92.9837 7.8C92.4903 7.28 91.7837 7.02 90.8637 7.02C89.8237 7.02 89.0037 7.32667 88.4037 7.94C87.8037 8.54 87.5037 9.40667 87.5037 10.54V16H85.5837V5.4H87.4237V7C87.8103 6.45333 88.3303 6.03333 88.9837 5.74C89.6503 5.44667 90.4037 5.3 91.2437 5.3ZM109.256 1.16V16H107.416V14.32C106.989 14.9067 106.449 15.3533 105.796 15.66C105.142 15.9667 104.422 16.12 103.636 16.12C102.609 16.12 101.689 15.8933 100.876 15.44C100.062 14.9867 99.4222 14.3533 98.9555 13.54C98.5022 12.7133 98.2755 11.7667 98.2755 10.7C98.2755 9.63333 98.5022 8.69333 98.9555 7.88C99.4222 7.06667 100.062 6.43333 100.876 5.98C101.689 5.52667 102.609 5.3 103.636 5.3C104.396 5.3 105.096 5.44667 105.736 5.74C106.376 6.02 106.909 6.44 107.336 7V1.16H109.256ZM103.796 14.44C104.462 14.44 105.069 14.2867 105.616 13.98C106.162 13.66 106.589 13.22 106.896 12.66C107.202 12.0867 107.356 11.4333 107.356 10.7C107.356 9.96667 107.202 9.32 106.896 8.76C106.589 8.18667 106.162 7.74667 105.616 7.44C105.069 7.13333 104.462 6.98 103.796 6.98C103.116 6.98 102.502 7.13333 101.956 7.44C101.422 7.74667 100.996 8.18667 100.676 8.76C100.369 9.32 100.216 9.96667 100.216 10.7C100.216 11.4333 100.369 12.0867 100.676 12.66C100.996 13.22 101.422 13.66 101.956 13.98C102.502 14.2867 103.116 14.44 103.796 14.44ZM120.099 7.18C120.433 6.56667 120.926 6.1 121.579 5.78C122.233 5.46 123.026 5.3 123.959 5.3V7.16C123.853 7.14667 123.706 7.14 123.519 7.14C122.479 7.14 121.659 7.45333 121.059 8.08C120.473 8.69333 120.179 9.57333 120.179 10.72V16H118.259V5.4H120.099V7.18ZM136.343 5.4V16H134.523V14.4C134.136 14.9467 133.623 15.3733 132.983 15.68C132.356 15.9733 131.669 16.12 130.923 16.12C129.509 16.12 128.396 15.7333 127.583 14.96C126.769 14.1733 126.363 13.02 126.363 11.5V5.4H128.283V11.28C128.283 12.3067 128.529 13.0867 129.023 13.62C129.516 14.14 130.223 14.4 131.143 14.4C132.156 14.4 132.956 14.0933 133.543 13.48C134.129 12.8667 134.423 12 134.423 10.88V5.4H136.343ZM145.658 5.3C147.004 5.3 148.071 5.69333 148.858 6.48C149.658 7.25333 150.058 8.39333 150.058 9.9V16H148.138V10.12C148.138 9.09333 147.891 8.32 147.398 7.8C146.904 7.28 146.198 7.02 145.278 7.02C144.238 7.02 143.418 7.32667 142.818 7.94C142.218 8.54 141.918 9.40667 141.918 10.54V16H139.998V5.4H141.838V7C142.224 6.45333 142.744 6.03333 143.398 5.74C144.064 5.44667 144.818 5.3 145.658 5.3ZM158.982 5.4H160.902V16H158.982V5.4ZM159.942 3.36C159.569 3.36 159.255 3.24 159.002 3C158.762 2.76 158.642 2.46667 158.642 2.12C158.642 1.77333 158.762 1.48 159.002 1.24C159.255 0.986666 159.569 0.859999 159.942 0.859999C160.315 0.859999 160.622 0.979999 160.862 1.22C161.115 1.44667 161.242 1.73333 161.242 2.08C161.242 2.44 161.115 2.74667 160.862 3C160.622 3.24 160.315 3.36 159.942 3.36ZM170.228 5.3C171.575 5.3 172.641 5.69333 173.428 6.48C174.228 7.25333 174.628 8.39333 174.628 9.9V16H172.708V10.12C172.708 9.09333 172.461 8.32 171.968 7.8C171.475 7.28 170.768 7.02 169.848 7.02C168.808 7.02 167.988 7.32667 167.388 7.94C166.788 8.54 166.488 9.40667 166.488 10.54V16H164.568V5.4H166.408V7C166.795 6.45333 167.315 6.03333 167.968 5.74C168.635 5.44667 169.388 5.3 170.228 5.3ZM184.141 15.38C183.861 15.62 183.515 15.8067 183.101 15.94C182.688 16.06 182.261 16.12 181.821 16.12C180.755 16.12 179.928 15.8333 179.341 15.26C178.755 14.6867 178.461 13.8667 178.461 12.8V6.98H176.661V5.4H178.461V3.08H180.381V5.4H183.421V6.98H180.381V12.72C180.381 13.2933 180.521 13.7333 180.801 14.04C181.095 14.3467 181.508 14.5 182.041 14.5C182.628 14.5 183.128 14.3333 183.541 14L184.141 15.38ZM195.691 10.76C195.691 10.9067 195.678 11.1 195.651 11.34H187.051C187.171 12.2733 187.578 13.0267 188.271 13.6C188.978 14.16 189.851 14.44 190.891 14.44C192.158 14.44 193.178 14.0133 193.951 13.16L195.011 14.4C194.531 14.96 193.931 15.3867 193.211 15.68C192.504 15.9733 191.711 16.12 190.831 16.12C189.711 16.12 188.718 15.8933 187.851 15.44C186.984 14.9733 186.311 14.3267 185.831 13.5C185.364 12.6733 185.131 11.74 185.131 10.7C185.131 9.67333 185.358 8.74667 185.811 7.92C186.278 7.09333 186.911 6.45333 187.711 6C188.524 5.53333 189.438 5.3 190.451 5.3C191.464 5.3 192.364 5.53333 193.151 6C193.951 6.45333 194.571 7.09333 195.011 7.92C195.464 8.74667 195.691 9.69333 195.691 10.76ZM190.451 6.92C189.531 6.92 188.758 7.2 188.131 7.76C187.518 8.32 187.158 9.05333 187.051 9.96H193.851C193.744 9.06667 193.378 8.34 192.751 7.78C192.138 7.20667 191.371 6.92 190.451 6.92ZM200.197 7.18C200.53 6.56667 201.024 6.1 201.677 5.78C202.33 5.46 203.124 5.3 204.057 5.3V7.16C203.95 7.14667 203.804 7.14 203.617 7.14C202.577 7.14 201.757 7.45333 201.157 8.08C200.57 8.69333 200.277 9.57333 200.277 10.72V16H198.357V5.4H200.197V7.18ZM210.264 5.3C211.731 5.3 212.851 5.66 213.624 6.38C214.411 7.1 214.804 8.17333 214.804 9.6V16H212.984V14.6C212.664 15.0933 212.204 15.4733 211.604 15.74C211.017 15.9933 210.317 16.12 209.504 16.12C208.317 16.12 207.364 15.8333 206.644 15.26C205.937 14.6867 205.584 13.9333 205.584 13C205.584 12.0667 205.924 11.32 206.604 10.76C207.284 10.1867 208.364 9.9 209.844 9.9H212.884V9.52C212.884 8.69333 212.644 8.06 212.164 7.62C211.684 7.18 210.977 6.96 210.044 6.96C209.417 6.96 208.804 7.06667 208.204 7.28C207.604 7.48 207.097 7.75333 206.684 8.1L205.884 6.66C206.431 6.22 207.084 5.88667 207.844 5.66C208.604 5.42 209.411 5.3 210.264 5.3ZM209.824 14.64C210.557 14.64 211.191 14.48 211.724 14.16C212.257 13.8267 212.644 13.36 212.884 12.76V11.28H209.924C208.297 11.28 207.484 11.8267 207.484 12.92C207.484 13.4533 207.691 13.8733 208.104 14.18C208.517 14.4867 209.091 14.64 209.824 14.64ZM223.036 16.12C221.956 16.12 220.989 15.8867 220.136 15.42C219.296 14.9533 218.636 14.3133 218.156 13.5C217.676 12.6733 217.436 11.74 217.436 10.7C217.436 9.66 217.676 8.73333 218.156 7.92C218.636 7.09333 219.296 6.45333 220.136 6C220.989 5.53333 221.956 5.3 223.036 5.3C223.996 5.3 224.849 5.49333 225.596 5.88C226.356 6.26667 226.942 6.82667 227.356 7.56L225.896 8.5C225.562 7.99333 225.149 7.61333 224.656 7.36C224.162 7.10667 223.616 6.98 223.016 6.98C222.322 6.98 221.696 7.13333 221.136 7.44C220.589 7.74667 220.156 8.18667 219.836 8.76C219.529 9.32 219.376 9.96667 219.376 10.7C219.376 11.4467 219.529 12.1067 219.836 12.68C220.156 13.24 220.589 13.6733 221.136 13.98C221.696 14.2867 222.322 14.44 223.016 14.44C223.616 14.44 224.162 14.3133 224.656 14.06C225.149 13.8067 225.562 13.4267 225.896 12.92L227.356 13.84C226.942 14.5733 226.356 15.14 225.596 15.54C224.849 15.9267 223.996 16.12 223.036 16.12ZM235.938 15.38C235.658 15.62 235.312 15.8067 234.898 15.94C234.485 16.06 234.058 16.12 233.618 16.12C232.552 16.12 231.725 15.8333 231.138 15.26C230.552 14.6867 230.258 13.8667 230.258 12.8V6.98H228.458V5.4H230.258V3.08H232.178V5.4H235.218V6.98H232.178V12.72C232.178 13.2933 232.318 13.7333 232.598 14.04C232.892 14.3467 233.305 14.5 233.838 14.5C234.425 14.5 234.925 14.3333 235.338 14L235.938 15.38ZM238.259 5.4H240.179V16H238.259V5.4ZM239.219 3.36C238.846 3.36 238.533 3.24 238.279 3C238.039 2.76 237.919 2.46667 237.919 2.12C237.919 1.77333 238.039 1.48 238.279 1.24C238.533 0.986666 238.846 0.859999 239.219 0.859999C239.593 0.859999 239.899 0.979999 240.139 1.22C240.393 1.44667 240.519 1.73333 240.519 2.08C240.519 2.44 240.393 2.74667 240.139 3C239.899 3.24 239.593 3.36 239.219 3.36ZM253.225 5.4L248.585 16H246.625L241.985 5.4H243.985L247.625 13.9L251.345 5.4H253.225ZM264.304 10.76C264.304 10.9067 264.291 11.1 264.264 11.34H255.664C255.784 12.2733 256.191 13.0267 256.884 13.6C257.591 14.16 258.464 14.44 259.504 14.44C260.771 14.44 261.791 14.0133 262.564 13.16L263.624 14.4C263.144 14.96 262.544 15.3867 261.824 15.68C261.118 15.9733 260.324 16.12 259.444 16.12C258.324 16.12 257.331 15.8933 256.464 15.44C255.598 14.9733 254.924 14.3267 254.444 13.5C253.978 12.6733 253.744 11.74 253.744 10.7C253.744 9.67333 253.971 8.74667 254.424 7.92C254.891 7.09333 255.524 6.45333 256.324 6C257.138 5.53333 258.051 5.3 259.064 5.3C260.078 5.3 260.978 5.53333 261.764 6C262.564 6.45333 263.184 7.09333 263.624 7.92C264.078 8.74667 264.304 9.69333 264.304 10.76ZM259.064 6.92C258.144 6.92 257.371 7.2 256.744 7.76C256.131 8.32 255.771 9.05333 255.664 9.96H262.464C262.358 9.06667 261.991 8.34 261.364 7.78C260.751 7.20667 259.984 6.92 259.064 6.92ZM282.341 5.4V19.88H280.421V14.4C279.981 14.96 279.441 15.3867 278.801 15.68C278.175 15.9733 277.481 16.12 276.721 16.12C275.695 16.12 274.775 15.8933 273.961 15.44C273.148 14.9867 272.508 14.3533 272.041 13.54C271.588 12.7133 271.361 11.7667 271.361 10.7C271.361 9.63333 271.588 8.69333 272.041 7.88C272.508 7.06667 273.148 6.43333 273.961 5.98C274.775 5.52667 275.695 5.3 276.721 5.3C277.508 5.3 278.228 5.45333 278.881 5.76C279.535 6.05333 280.075 6.49333 280.501 7.08V5.4H282.341ZM276.881 14.44C277.548 14.44 278.155 14.2867 278.701 13.98C279.248 13.66 279.675 13.22 279.981 12.66C280.288 12.0867 280.441 11.4333 280.441 10.7C280.441 9.96667 280.281 9.32 279.961 8.76C279.655 8.2 279.228 7.76667 278.681 7.46C278.148 7.14 277.548 6.98 276.881 6.98C276.201 6.98 275.588 7.13333 275.041 7.44C274.508 7.74667 274.081 8.18667 273.761 8.76C273.455 9.32 273.301 9.96667 273.301 10.7C273.301 11.4333 273.455 12.0867 273.761 12.66C274.081 13.22 274.508 13.66 275.041 13.98C275.588 14.2867 276.201 14.44 276.881 14.44ZM295.854 5.4V16H294.034V14.4C293.648 14.9467 293.134 15.3733 292.494 15.68C291.868 15.9733 291.181 16.12 290.434 16.12C289.021 16.12 287.908 15.7333 287.094 14.96C286.281 14.1733 285.874 13.02 285.874 11.5V5.4H287.794V11.28C287.794 12.3067 288.041 13.0867 288.534 13.62C289.028 14.14 289.734 14.4 290.654 14.4C291.668 14.4 292.468 14.0933 293.054 13.48C293.641 12.8667 293.934 12 293.934 10.88V5.4H295.854ZM299.509 5.4H301.429V16H299.509V5.4ZM300.469 3.36C300.096 3.36 299.783 3.24 299.529 3C299.289 2.76 299.169 2.46667 299.169 2.12C299.169 1.77333 299.289 1.48 299.529 1.24C299.783 0.986666 300.096 0.859999 300.469 0.859999C300.843 0.859999 301.149 0.979999 301.389 1.22C301.643 1.44667 301.769 1.73333 301.769 2.08C301.769 2.44 301.643 2.74667 301.389 3C301.149 3.24 300.843 3.36 300.469 3.36ZM312.955 14.42V16H304.075V14.76L310.335 6.98H304.195V5.4H312.795V6.66L306.535 14.42H312.955ZM324.949 10.76C324.949 10.9067 324.935 11.1 324.909 11.34H316.309C316.429 12.2733 316.835 13.0267 317.529 13.6C318.235 14.16 319.109 14.44 320.149 14.44C321.415 14.44 322.435 14.0133 323.209 13.16L324.269 14.4C323.789 14.96 323.189 15.3867 322.469 15.68C321.762 15.9733 320.969 16.12 320.089 16.12C318.969 16.12 317.975 15.8933 317.109 15.44C316.242 14.9733 315.569 14.3267 315.089 13.5C314.622 12.6733 314.389 11.74 314.389 10.7C314.389 9.67333 314.615 8.74667 315.069 7.92C315.535 7.09333 316.169 6.45333 316.969 6C317.782 5.53333 318.695 5.3 319.709 5.3C320.722 5.3 321.622 5.53333 322.409 6C323.209 6.45333 323.829 7.09333 324.269 7.92C324.722 8.74667 324.949 9.69333 324.949 10.76ZM319.709 6.92C318.789 6.92 318.015 7.2 317.389 7.76C316.775 8.32 316.415 9.05333 316.309 9.96H323.109C323.002 9.06667 322.635 8.34 322.009 7.78C321.395 7.20667 320.629 6.92 319.709 6.92ZM330.655 16.12C329.788 16.12 328.955 16.0067 328.155 15.78C327.355 15.54 326.728 15.24 326.275 14.88L327.075 13.36C327.542 13.6933 328.108 13.96 328.775 14.16C329.442 14.36 330.115 14.46 330.795 14.46C332.475 14.46 333.315 13.98 333.315 13.02C333.315 12.7 333.202 12.4467 332.975 12.26C332.748 12.0733 332.462 11.94 332.115 11.86C331.782 11.7667 331.302 11.6667 330.675 11.56C329.822 11.4267 329.122 11.2733 328.575 11.1C328.042 10.9267 327.582 10.6333 327.195 10.22C326.808 9.80667 326.615 9.22667 326.615 8.48C326.615 7.52 327.015 6.75333 327.815 6.18C328.615 5.59333 329.688 5.3 331.035 5.3C331.742 5.3 332.448 5.38667 333.155 5.56C333.862 5.73333 334.442 5.96667 334.895 6.26L334.075 7.78C333.208 7.22 332.188 6.94 331.015 6.94C330.202 6.94 329.582 7.07333 329.155 7.34C328.728 7.60667 328.515 7.96 328.515 8.4C328.515 8.74667 328.635 9.02 328.875 9.22C329.115 9.42 329.408 9.56667 329.755 9.66C330.115 9.75333 330.615 9.86 331.255 9.98C332.108 10.1267 332.795 10.2867 333.315 10.46C333.848 10.62 334.302 10.9 334.675 11.3C335.048 11.7 335.235 12.26 335.235 12.98C335.235 13.94 334.822 14.7067 333.995 15.28C333.182 15.84 332.068 16.12 330.655 16.12ZM359.046 5.4L355.086 16H353.246L350.186 7.96L347.086 16H345.246L341.306 5.4H343.126L346.206 13.84L349.406 5.4H351.026L354.166 13.88L357.326 5.4H359.046ZM360.994 5.4H362.914V16H360.994V5.4ZM361.954 3.36C361.58 3.36 361.267 3.24 361.014 3C360.774 2.76 360.654 2.46667 360.654 2.12C360.654 1.77333 360.774 1.48 361.014 1.24C361.267 0.986666 361.58 0.859999 361.954 0.859999C362.327 0.859999 362.634 0.979999 362.874 1.22C363.127 1.44667 363.254 1.73333 363.254 2.08C363.254 2.44 363.127 2.74667 362.874 3C362.634 3.24 362.327 3.36 361.954 3.36ZM372.54 15.38C372.26 15.62 371.913 15.8067 371.5 15.94C371.086 16.06 370.66 16.12 370.22 16.12C369.153 16.12 368.326 15.8333 367.74 15.26C367.153 14.6867 366.86 13.8667 366.86 12.8V6.98H365.06V5.4H366.86V3.08H368.78V5.4H371.82V6.98H368.78V12.72C368.78 13.2933 368.92 13.7333 369.2 14.04C369.493 14.3467 369.906 14.5 370.44 14.5C371.026 14.5 371.526 14.3333 371.94 14L372.54 15.38ZM380.521 5.3C381.868 5.3 382.934 5.69333 383.721 6.48C384.521 7.25333 384.921 8.39333 384.921 9.9V16H383.001V10.12C383.001 9.09333 382.754 8.32 382.261 7.8C381.768 7.28 381.061 7.02 380.141 7.02C379.101 7.02 378.281 7.32667 377.681 7.94C377.081 8.54 376.781 9.40667 376.781 10.54V16H374.861V1.16H376.781V6.9C377.181 6.39333 377.701 6 378.341 5.72C378.994 5.44 379.721 5.3 380.521 5.3ZM397.725 2.62C396.579 2.62 396.005 3.24 396.005 4.48V5.4H399.085V6.98H396.045V16H394.125V6.98H392.325V5.4H394.125V4.46C394.125 3.40667 394.432 2.57333 395.045 1.96C395.659 1.34667 396.519 1.04 397.625 1.04C398.052 1.04 398.452 1.09333 398.825 1.2C399.199 1.30667 399.519 1.46 399.785 1.66L399.205 3.12C398.765 2.78667 398.272 2.62 397.725 2.62ZM404.561 5.3C406.028 5.3 407.148 5.66 407.921 6.38C408.708 7.1 409.101 8.17333 409.101 9.6V16H407.281V14.6C406.961 15.0933 406.501 15.4733 405.901 15.74C405.314 15.9933 404.614 16.12 403.801 16.12C402.614 16.12 401.661 15.8333 400.941 15.26C400.234 14.6867 399.881 13.9333 399.881 13C399.881 12.0667 400.221 11.32 400.901 10.76C401.581 10.1867 402.661 9.9 404.141 9.9H407.181V9.52C407.181 8.69333 406.941 8.06 406.461 7.62C405.981 7.18 405.274 6.96 404.341 6.96C403.714 6.96 403.101 7.06667 402.501 7.28C401.901 7.48 401.394 7.75333 400.981 8.1L400.181 6.66C400.728 6.22 401.381 5.88667 402.141 5.66C402.901 5.42 403.708 5.3 404.561 5.3ZM404.121 14.64C404.854 14.64 405.488 14.48 406.021 14.16C406.554 13.8267 406.941 13.36 407.181 12.76V11.28H404.221C402.594 11.28 401.781 11.8267 401.781 12.92C401.781 13.4533 401.988 13.8733 402.401 14.18C402.814 14.4867 403.388 14.64 404.121 14.64ZM425.914 5.3C427.247 5.3 428.301 5.68667 429.074 6.46C429.861 7.23333 430.254 8.38 430.254 9.9V16H428.334V10.12C428.334 9.09333 428.094 8.32 427.614 7.8C427.147 7.28 426.474 7.02 425.594 7.02C424.621 7.02 423.847 7.32667 423.274 7.94C422.701 8.54 422.414 9.40667 422.414 10.54V16H420.494V10.12C420.494 9.09333 420.254 8.32 419.774 7.8C419.307 7.28 418.634 7.02 417.754 7.02C416.781 7.02 416.007 7.32667 415.434 7.94C414.861 8.54 414.574 9.40667 414.574 10.54V16H412.654V5.4H414.494V6.98C414.881 6.43333 415.387 6.02 416.014 5.74C416.641 5.44667 417.354 5.3 418.154 5.3C418.981 5.3 419.714 5.46667 420.354 5.8C420.994 6.13333 421.487 6.62 421.834 7.26C422.234 6.64667 422.787 6.16667 423.494 5.82C424.214 5.47333 425.021 5.3 425.914 5.3ZM433.787 5.4H435.707V16H433.787V5.4ZM434.747 3.36C434.373 3.36 434.06 3.24 433.807 3C433.567 2.76 433.447 2.46667 433.447 2.12C433.447 1.77333 433.567 1.48 433.807 1.24C434.06 0.986666 434.373 0.859999 434.747 0.859999C435.12 0.859999 435.427 0.979999 435.667 1.22C435.92 1.44667 436.047 1.73333 436.047 2.08C436.047 2.44 435.92 2.74667 435.667 3C435.427 3.24 435.12 3.36 434.747 3.36ZM439.373 1.16H441.293V16H439.373V1.16ZM454.339 5.4L449.199 17.06C448.745 18.14 448.212 18.9 447.599 19.34C446.999 19.78 446.272 20 445.419 20C444.899 20 444.392 19.9133 443.899 19.74C443.419 19.58 443.019 19.34 442.699 19.02L443.519 17.58C444.065 18.1 444.699 18.36 445.419 18.36C445.885 18.36 446.272 18.2333 446.579 17.98C446.899 17.74 447.185 17.32 447.439 16.72L447.779 15.98L443.099 5.4H445.099L448.799 13.88L452.459 5.4H454.339ZM455.946 13.38C456.32 13.38 456.626 13.5133 456.866 13.78C457.12 14.0333 457.246 14.3533 457.246 14.74C457.246 14.94 457.22 15.1333 457.166 15.32C457.126 15.5067 457.04 15.7933 456.906 16.18L455.966 18.96H454.706L455.446 15.98C455.193 15.8867 454.986 15.7333 454.826 15.52C454.68 15.2933 454.606 15.0333 454.606 14.74C454.606 14.34 454.733 14.0133 454.986 13.76C455.24 13.5067 455.56 13.38 455.946 13.38ZM469.249 2.62C468.102 2.62 467.529 3.24 467.529 4.48V5.4H470.609V6.98H467.569V16H465.649V6.98H463.849V5.4H465.649V4.46C465.649 3.40667 465.955 2.57333 466.569 1.96C467.182 1.34667 468.042 1.04 469.149 1.04C469.575 1.04 469.975 1.09333 470.349 1.2C470.722 1.30667 471.042 1.46 471.309 1.66L470.729 3.12C470.289 2.78667 469.795 2.62 469.249 2.62ZM475.861 7.18C476.195 6.56667 476.688 6.1 477.341 5.78C477.995 5.46 478.788 5.3 479.721 5.3V7.16C479.615 7.14667 479.468 7.14 479.281 7.14C478.241 7.14 477.421 7.45333 476.821 8.08C476.235 8.69333 475.941 9.57333 475.941 10.72V16H474.021V5.4H475.861V7.18ZM482.088 5.4H484.008V16H482.088V5.4ZM483.048 3.36C482.674 3.36 482.361 3.24 482.108 3C481.868 2.76 481.748 2.46667 481.748 2.12C481.748 1.77333 481.868 1.48 482.108 1.24C482.361 0.986666 482.674 0.859999 483.048 0.859999C483.421 0.859999 483.728 0.979999 483.968 1.22C484.221 1.44667 484.348 1.73333 484.348 2.08C484.348 2.44 484.221 2.74667 483.968 3C483.728 3.24 483.421 3.36 483.048 3.36ZM497.254 10.76C497.254 10.9067 497.24 11.1 497.214 11.34H488.614C488.734 12.2733 489.14 13.0267 489.834 13.6C490.54 14.16 491.414 14.44 492.454 14.44C493.72 14.44 494.74 14.0133 495.514 13.16L496.574 14.4C496.094 14.96 495.494 15.3867 494.774 15.68C494.067 15.9733 493.274 16.12 492.394 16.12C491.274 16.12 490.28 15.8933 489.414 15.44C488.547 14.9733 487.874 14.3267 487.394 13.5C486.927 12.6733 486.694 11.74 486.694 10.7C486.694 9.67333 486.92 8.74667 487.374 7.92C487.84 7.09333 488.474 6.45333 489.274 6C490.087 5.53333 491 5.3 492.014 5.3C493.027 5.3 493.927 5.53333 494.714 6C495.514 6.45333 496.134 7.09333 496.574 7.92C497.027 8.74667 497.254 9.69333 497.254 10.76ZM492.014 6.92C491.094 6.92 490.32 7.2 489.694 7.76C489.08 8.32 488.72 9.05333 488.614 9.96H495.414C495.307 9.06667 494.94 8.34 494.314 7.78C493.7 7.20667 492.934 6.92 492.014 6.92ZM505.58 5.3C506.926 5.3 507.993 5.69333 508.78 6.48C509.58 7.25333 509.98 8.39333 509.98 9.9V16H508.06V10.12C508.06 9.09333 507.813 8.32 507.32 7.8C506.826 7.28 506.12 7.02 505.2 7.02C504.16 7.02 503.34 7.32667 502.74 7.94C502.14 8.54 501.84 9.40667 501.84 10.54V16H499.92V5.4H501.76V7C502.146 6.45333 502.666 6.03333 503.32 5.74C503.986 5.44667 504.74 5.3 505.58 5.3ZM523.591 1.16V16H521.751V14.32C521.325 14.9067 520.785 15.3533 520.131 15.66C519.478 15.9667 518.758 16.12 517.971 16.12C516.945 16.12 516.025 15.8933 515.211 15.44C514.398 14.9867 513.758 14.3533 513.291 13.54C512.838 12.7133 512.611 11.7667 512.611 10.7C512.611 9.63333 512.838 8.69333 513.291 7.88C513.758 7.06667 514.398 6.43333 515.211 5.98C516.025 5.52667 516.945 5.3 517.971 5.3C518.731 5.3 519.431 5.44667 520.071 5.74C520.711 6.02 521.245 6.44 521.671 7V1.16H523.591ZM518.131 14.44C518.798 14.44 519.405 14.2867 519.951 13.98C520.498 13.66 520.925 13.22 521.231 12.66C521.538 12.0867 521.691 11.4333 521.691 10.7C521.691 9.96667 521.538 9.32 521.231 8.76C520.925 8.18667 520.498 7.74667 519.951 7.44C519.405 7.13333 518.798 6.98 518.131 6.98C517.451 6.98 516.838 7.13333 516.291 7.44C515.758 7.74667 515.331 8.18667 515.011 8.76C514.705 9.32 514.551 9.96667 514.551 10.7C514.551 11.4333 514.705 12.0867 515.011 12.66C515.331 13.22 515.758 13.66 516.291 13.98C516.838 14.2867 517.451 14.44 518.131 14.44ZM530.264 16.12C529.398 16.12 528.564 16.0067 527.764 15.78C526.964 15.54 526.338 15.24 525.884 14.88L526.684 13.36C527.151 13.6933 527.718 13.96 528.384 14.16C529.051 14.36 529.724 14.46 530.404 14.46C532.084 14.46 532.924 13.98 532.924 13.02C532.924 12.7 532.811 12.4467 532.584 12.26C532.358 12.0733 532.071 11.94 531.724 11.86C531.391 11.7667 530.911 11.6667 530.284 11.56C529.431 11.4267 528.731 11.2733 528.184 11.1C527.651 10.9267 527.191 10.6333 526.804 10.22C526.418 9.80667 526.224 9.22667 526.224 8.48C526.224 7.52 526.624 6.75333 527.424 6.18C528.224 5.59333 529.298 5.3 530.644 5.3C531.351 5.3 532.058 5.38667 532.764 5.56C533.471 5.73333 534.051 5.96667 534.504 6.26L533.684 7.78C532.818 7.22 531.798 6.94 530.624 6.94C529.811 6.94 529.191 7.07333 528.764 7.34C528.338 7.60667 528.124 7.96 528.124 8.4C528.124 8.74667 528.244 9.02 528.484 9.22C528.724 9.42 529.018 9.56667 529.364 9.66C529.724 9.75333 530.224 9.86 530.864 9.98C531.718 10.1267 532.404 10.2867 532.924 10.46C533.458 10.62 533.911 10.9 534.284 11.3C534.658 11.7 534.844 12.26 534.844 12.98C534.844 13.94 534.431 14.7067 533.604 15.28C532.791 15.84 531.678 16.12 530.264 16.12ZM547.155 16.12C546.102 16.12 545.155 15.8867 544.315 15.42C543.475 14.9533 542.815 14.3133 542.335 13.5C541.868 12.6733 541.635 11.74 541.635 10.7C541.635 9.66 541.868 8.73333 542.335 7.92C542.815 7.09333 543.475 6.45333 544.315 6C545.155 5.53333 546.102 5.3 547.155 5.3C548.208 5.3 549.148 5.53333 549.975 6C550.815 6.45333 551.468 7.09333 551.935 7.92C552.415 8.73333 552.655 9.66 552.655 10.7C552.655 11.74 552.415 12.6733 551.935 13.5C551.468 14.3133 550.815 14.9533 549.975 15.42C549.148 15.8867 548.208 16.12 547.155 16.12ZM547.155 14.44C547.835 14.44 548.442 14.2867 548.975 13.98C549.522 13.66 549.948 13.22 550.255 12.66C550.562 12.0867 550.715 11.4333 550.715 10.7C550.715 9.96667 550.562 9.32 550.255 8.76C549.948 8.18667 549.522 7.74667 548.975 7.44C548.442 7.13333 547.835 6.98 547.155 6.98C546.475 6.98 545.862 7.13333 545.315 7.44C544.782 7.74667 544.355 8.18667 544.035 8.76C543.728 9.32 543.575 9.96667 543.575 10.7C543.575 11.4333 543.728 12.0867 544.035 12.66C544.355 13.22 544.782 13.66 545.315 13.98C545.862 14.2867 546.475 14.44 547.155 14.44ZM557.15 7.18C557.484 6.56667 557.977 6.1 558.63 5.78C559.284 5.46 560.077 5.3 561.01 5.3V7.16C560.904 7.14667 560.757 7.14 560.57 7.14C559.53 7.14 558.71 7.45333 558.11 8.08C557.524 8.69333 557.23 9.57333 557.23 10.72V16H555.31V5.4H557.15V7.18ZM571.924 16.12C571.058 16.12 570.224 16.0067 569.424 15.78C568.624 15.54 567.998 15.24 567.544 14.88L568.344 13.36C568.811 13.6933 569.378 13.96 570.044 14.16C570.711 14.36 571.384 14.46 572.064 14.46C573.744 14.46 574.584 13.98 574.584 13.02C574.584 12.7 574.471 12.4467 574.244 12.26C574.018 12.0733 573.731 11.94 573.384 11.86C573.051 11.7667 572.571 11.6667 571.944 11.56C571.091 11.4267 570.391 11.2733 569.844 11.1C569.311 10.9267 568.851 10.6333 568.464 10.22C568.078 9.80667 567.884 9.22667 567.884 8.48C567.884 7.52 568.284 6.75333 569.084 6.18C569.884 5.59333 570.958 5.3 572.304 5.3C573.011 5.3 573.718 5.38667 574.424 5.56C575.131 5.73333 575.711 5.96667 576.164 6.26L575.344 7.78C574.478 7.22 573.458 6.94 572.284 6.94C571.471 6.94 570.851 7.07333 570.424 7.34C569.998 7.60667 569.784 7.96 569.784 8.4C569.784 8.74667 569.904 9.02 570.144 9.22C570.384 9.42 570.678 9.56667 571.024 9.66C571.384 9.75333 571.884 9.86 572.524 9.98C573.378 10.1267 574.064 10.2867 574.584 10.46C575.118 10.62 575.571 10.9 575.944 11.3C576.318 11.7 576.504 12.26 576.504 12.98C576.504 13.94 576.091 14.7067 575.264 15.28C574.451 15.84 573.338 16.12 571.924 16.12ZM584.864 15.38C584.584 15.62 584.237 15.8067 583.824 15.94C583.411 16.06 582.984 16.12 582.544 16.12C581.477 16.12 580.651 15.8333 580.064 15.26C579.477 14.6867 579.184 13.8667 579.184 12.8V6.98H577.384V5.4H579.184V3.08H581.104V5.4H584.144V6.98H581.104V12.72C581.104 13.2933 581.244 13.7333 581.524 14.04C581.817 14.3467 582.231 14.5 582.764 14.5C583.351 14.5 583.851 14.3333 584.264 14L584.864 15.38ZM597.065 5.4V16H595.245V14.4C594.859 14.9467 594.345 15.3733 593.705 15.68C593.079 15.9733 592.392 16.12 591.645 16.12C590.232 16.12 589.119 15.7333 588.305 14.96C587.492 14.1733 587.085 13.02 587.085 11.5V5.4H589.005V11.28C589.005 12.3067 589.252 13.0867 589.745 13.62C590.239 14.14 590.945 14.4 591.865 14.4C592.879 14.4 593.679 14.0933 594.265 13.48C594.852 12.8667 595.145 12 595.145 10.88V5.4H597.065ZM610.72 1.16V16H608.88V14.32C608.454 14.9067 607.914 15.3533 607.26 15.66C606.607 15.9667 605.887 16.12 605.1 16.12C604.074 16.12 603.154 15.8933 602.34 15.44C601.527 14.9867 600.887 14.3533 600.42 13.54C599.967 12.7133 599.74 11.7667 599.74 10.7C599.74 9.63333 599.967 8.69333 600.42 7.88C600.887 7.06667 601.527 6.43333 602.34 5.98C603.154 5.52667 604.074 5.3 605.1 5.3C605.86 5.3 606.56 5.44667 607.2 5.74C607.84 6.02 608.374 6.44 608.8 7V1.16H610.72ZM605.26 14.44C605.927 14.44 606.534 14.2867 607.08 13.98C607.627 13.66 608.054 13.22 608.36 12.66C608.667 12.0867 608.82 11.4333 608.82 10.7C608.82 9.96667 608.667 9.32 608.36 8.76C608.054 8.18667 607.627 7.74667 607.08 7.44C606.534 7.13333 605.927 6.98 605.26 6.98C604.58 6.98 603.967 7.13333 603.42 7.44C602.887 7.74667 602.46 8.18667 602.14 8.76C601.834 9.32 601.68 9.96667 601.68 10.7C601.68 11.4333 601.834 12.0867 602.14 12.66C602.46 13.22 602.887 13.66 603.42 13.98C603.967 14.2867 604.58 14.44 605.26 14.44ZM623.933 10.76C623.933 10.9067 623.92 11.1 623.893 11.34H615.293C615.413 12.2733 615.82 13.0267 616.513 13.6C617.22 14.16 618.093 14.44 619.133 14.44C620.4 14.44 621.42 14.0133 622.193 13.16L623.253 14.4C622.773 14.96 622.173 15.3867 621.453 15.68C620.747 15.9733 619.953 16.12 619.073 16.12C617.953 16.12 616.96 15.8933 616.093 15.44C615.227 14.9733 614.553 14.3267 614.073 13.5C613.607 12.6733 613.373 11.74 613.373 10.7C613.373 9.67333 613.6 8.74667 614.053 7.92C614.52 7.09333 615.153 6.45333 615.953 6C616.767 5.53333 617.68 5.3 618.693 5.3C619.707 5.3 620.607 5.53333 621.393 6C622.193 6.45333 622.813 7.09333 623.253 7.92C623.707 8.74667 623.933 9.69333 623.933 10.76ZM618.693 6.92C617.773 6.92 617 7.2 616.373 7.76C615.76 8.32 615.4 9.05333 615.293 9.96H622.093C621.987 9.06667 621.62 8.34 620.993 7.78C620.38 7.20667 619.613 6.92 618.693 6.92ZM632.259 5.3C633.606 5.3 634.673 5.69333 635.459 6.48C636.259 7.25333 636.659 8.39333 636.659 9.9V16H634.739V10.12C634.739 9.09333 634.493 8.32 633.999 7.8C633.506 7.28 632.799 7.02 631.879 7.02C630.839 7.02 630.019 7.32667 629.419 7.94C628.819 8.54 628.519 9.40667 628.519 10.54V16H626.599V5.4H628.439V7C628.826 6.45333 629.346 6.03333 629.999 5.74C630.666 5.44667 631.419 5.3 632.259 5.3ZM646.173 15.38C645.893 15.62 645.546 15.8067 645.133 15.94C644.719 16.06 644.293 16.12 643.853 16.12C642.786 16.12 641.959 15.8333 641.373 15.26C640.786 14.6867 640.493 13.8667 640.493 12.8V6.98H638.693V5.4H640.493V3.08H642.413V5.4H645.453V6.98H642.413V12.72C642.413 13.2933 642.553 13.7333 642.833 14.04C643.126 14.3467 643.539 14.5 644.073 14.5C644.659 14.5 645.159 14.3333 645.573 14L646.173 15.38ZM651.534 16.12C650.667 16.12 649.834 16.0067 649.034 15.78C648.234 15.54 647.607 15.24 647.154 14.88L647.954 13.36C648.42 13.6933 648.987 13.96 649.654 14.16C650.32 14.36 650.994 14.46 651.674 14.46C653.354 14.46 654.194 13.98 654.194 13.02C654.194 12.7 654.08 12.4467 653.854 12.26C653.627 12.0733 653.34 11.94 652.994 11.86C652.66 11.7667 652.18 11.6667 651.554 11.56C650.7 11.4267 650 11.2733 649.454 11.1C648.92 10.9267 648.46 10.6333 648.074 10.22C647.687 9.80667 647.494 9.22667 647.494 8.48C647.494 7.52 647.894 6.75333 648.694 6.18C649.494 5.59333 650.567 5.3 651.914 5.3C652.62 5.3 653.327 5.38667 654.034 5.56C654.74 5.73333 655.32 5.96667 655.774 6.26L654.954 7.78C654.087 7.22 653.067 6.94 651.894 6.94C651.08 6.94 650.46 7.07333 650.034 7.34C649.607 7.60667 649.394 7.96 649.394 8.4C649.394 8.74667 649.514 9.02 649.754 9.22C649.994 9.42 650.287 9.56667 650.634 9.66C650.994 9.75333 651.494 9.86 652.134 9.98C652.987 10.1267 653.674 10.2867 654.194 10.46C654.727 10.62 655.18 10.9 655.554 11.3C655.927 11.7 656.114 12.26 656.114 12.98C656.114 13.94 655.7 14.7067 654.874 15.28C654.06 15.84 652.947 16.12 651.534 16.12Z" fill="white"/>
</svg>
