<svg width="337" height="198" viewBox="0 0 337 198" fill="none" xmlns="http://www.w3.org/2000/svg">
<path d="M28.9889 37L28.8989 20.305L20.7989 33.895H16.8389L8.78393 20.755V37H0.548926V5.5H7.88393L18.9539 23.68L29.7539 5.5H37.0889L37.1789 37H28.9889ZM53.4735 12.205C57.5235 12.205 60.6135 13.135 62.7435 14.995C64.8735 16.825 65.9385 19.645 65.9385 23.455V37H57.9735V33.85C56.7435 36.22 54.3435 37.405 50.7735 37.405C48.8835 37.405 47.2485 37.075 45.8685 36.415C44.4885 35.755 43.4385 34.87 42.7185 33.76C42.0285 32.62 41.6835 31.33 41.6835 29.89C41.6835 27.58 42.5685 25.795 44.3385 24.535C46.1085 23.245 48.8385 22.6 52.5285 22.6H57.3885C57.2385 20.02 55.5135 18.73 52.2135 18.73C51.0435 18.73 49.8585 18.925 48.6585 19.315C47.4585 19.675 46.4385 20.185 45.5985 20.845L42.7185 15.04C44.0685 14.14 45.7035 13.45 47.6235 12.97C49.5735 12.46 51.5235 12.205 53.4735 12.205ZM53.1585 32.005C54.1485 32.005 55.0185 31.765 55.7685 31.285C56.5185 30.805 57.0585 30.1 57.3885 29.17V27.055H53.6985C51.2085 27.055 49.9635 27.88 49.9635 29.53C49.9635 30.28 50.2485 30.88 50.8185 31.33C51.3885 31.78 52.1685 32.005 53.1585 32.005ZM82.4053 28.45L79.8853 31.015V37H71.3353V3.61H79.8853V21.115L88.6153 12.61H98.7403L88.6153 23.05L99.5953 37H89.2453L82.4053 28.45ZM126.016 24.85C126.016 24.91 125.971 25.615 125.881 26.965H108.151C108.511 28.225 109.201 29.2 110.221 29.89C111.271 30.55 112.576 30.88 114.136 30.88C115.306 30.88 116.311 30.715 117.151 30.385C118.021 30.055 118.891 29.515 119.761 28.765L124.261 33.445C121.891 36.085 118.426 37.405 113.866 37.405C111.016 37.405 108.511 36.865 106.351 35.785C104.191 34.705 102.511 33.205 101.311 31.285C100.141 29.365 99.5563 27.19 99.5563 24.76C99.5563 22.36 100.126 20.215 101.266 18.325C102.436 16.405 104.041 14.905 106.081 13.825C108.121 12.745 110.416 12.205 112.966 12.205C115.396 12.205 117.601 12.715 119.581 13.735C121.561 14.725 123.121 16.18 124.261 18.1C125.431 19.99 126.016 22.24 126.016 24.85ZM113.011 18.28C111.691 18.28 110.581 18.655 109.681 19.405C108.811 20.155 108.256 21.175 108.016 22.465H118.006C117.766 21.175 117.196 20.155 116.296 19.405C115.426 18.655 114.331 18.28 113.011 18.28ZM143.054 3.61H151.604V37H143.054V3.61ZM182.091 24.85C182.091 24.91 182.046 25.615 181.956 26.965H164.226C164.586 28.225 165.276 29.2 166.296 29.89C167.346 30.55 168.651 30.88 170.211 30.88C171.381 30.88 172.386 30.715 173.226 30.385C174.096 30.055 174.966 29.515 175.836 28.765L180.336 33.445C177.966 36.085 174.501 37.405 169.941 37.405C167.091 37.405 164.586 36.865 162.426 35.785C160.266 34.705 158.586 33.205 157.386 31.285C156.216 29.365 155.631 27.19 155.631 24.76C155.631 22.36 156.201 20.215 157.341 18.325C158.511 16.405 160.116 14.905 162.156 13.825C164.196 12.745 166.491 12.205 169.041 12.205C171.471 12.205 173.676 12.715 175.656 13.735C177.636 14.725 179.196 16.18 180.336 18.1C181.506 19.99 182.091 22.24 182.091 24.85ZM169.086 18.28C167.766 18.28 166.656 18.655 165.756 19.405C164.886 20.155 164.331 21.175 164.091 22.465H174.081C173.841 21.175 173.271 20.155 172.371 19.405C171.501 18.655 170.406 18.28 169.086 18.28ZM195.768 12.205C199.818 12.205 202.908 13.135 205.038 14.995C207.168 16.825 208.233 19.645 208.233 23.455V37H200.268V33.85C199.038 36.22 196.638 37.405 193.068 37.405C191.178 37.405 189.543 37.075 188.163 36.415C186.783 35.755 185.733 34.87 185.013 33.76C184.323 32.62 183.978 31.33 183.978 29.89C183.978 27.58 184.863 25.795 186.633 24.535C188.403 23.245 191.133 22.6 194.823 22.6H199.683C199.533 20.02 197.808 18.73 194.508 18.73C193.338 18.73 192.153 18.925 190.953 19.315C189.753 19.675 188.733 20.185 187.893 20.845L185.013 15.04C186.363 14.14 187.998 13.45 189.918 12.97C191.868 12.46 193.818 12.205 195.768 12.205ZM195.453 32.005C196.443 32.005 197.313 31.765 198.063 31.285C198.813 30.805 199.353 30.1 199.683 29.17V27.055H195.993C193.503 27.055 192.258 27.88 192.258 29.53C192.258 30.28 192.543 30.88 193.113 31.33C193.683 31.78 194.463 32.005 195.453 32.005ZM221.775 15.535C222.645 14.425 223.77 13.6 225.15 13.06C226.56 12.49 228.165 12.205 229.965 12.205V19.9C229.185 19.81 228.54 19.765 228.03 19.765C226.2 19.765 224.76 20.26 223.71 21.25C222.69 22.24 222.18 23.755 222.18 25.795V37H213.63V12.61H221.775V15.535ZM249.379 12.205C252.409 12.205 254.839 13.105 256.669 14.905C258.529 16.705 259.459 19.42 259.459 23.05V37H250.909V24.445C250.909 21.115 249.574 19.45 246.904 19.45C245.434 19.45 244.249 19.93 243.349 20.89C242.479 21.85 242.044 23.29 242.044 25.21V37H233.494V12.61H241.639V15.265C242.599 14.275 243.739 13.525 245.059 13.015C246.379 12.475 247.819 12.205 249.379 12.205ZM264.827 12.61H273.377V37H264.827V12.61ZM269.102 9.91C267.542 9.91 266.282 9.475 265.322 8.605C264.362 7.735 263.882 6.655 263.882 5.365C263.882 4.075 264.362 2.995 265.322 2.125C266.282 1.255 267.542 0.819999 269.102 0.819999C270.662 0.819999 271.922 1.24 272.882 2.08C273.842 2.89 274.322 3.94 274.322 5.23C274.322 6.58 273.842 7.705 272.882 8.605C271.922 9.475 270.662 9.91 269.102 9.91ZM294.818 12.205C297.848 12.205 300.278 13.105 302.108 14.905C303.968 16.705 304.898 19.42 304.898 23.05V37H296.348V24.445C296.348 21.115 295.013 19.45 292.343 19.45C290.873 19.45 289.688 19.93 288.788 20.89C287.918 21.85 287.483 23.29 287.483 25.21V37H278.933V12.61H287.078V15.265C288.038 14.275 289.178 13.525 290.498 13.015C291.818 12.475 293.258 12.205 294.818 12.205ZM336.853 12.61V32.545C336.853 37.075 335.623 40.465 333.163 42.715C330.703 44.995 327.163 46.135 322.543 46.135C320.143 46.135 317.893 45.865 315.793 45.325C313.693 44.785 311.908 43.99 310.438 42.94L313.543 36.955C314.533 37.765 315.778 38.395 317.278 38.845C318.808 39.325 320.308 39.565 321.778 39.565C324.028 39.565 325.678 39.07 326.728 38.08C327.778 37.09 328.303 35.62 328.303 33.67V32.86C326.653 34.78 324.238 35.74 321.058 35.74C318.898 35.74 316.903 35.26 315.073 34.3C313.243 33.31 311.788 31.93 310.708 30.16C309.628 28.36 309.088 26.29 309.088 23.95C309.088 21.64 309.628 19.6 310.708 17.83C311.788 16.03 313.243 14.65 315.073 13.69C316.903 12.7 318.898 12.205 321.058 12.205C324.538 12.205 327.088 13.33 328.708 15.58V12.61H336.853ZM323.083 28.945C324.613 28.945 325.873 28.48 326.863 27.55C327.883 26.62 328.393 25.42 328.393 23.95C328.393 22.48 327.898 21.295 326.908 20.395C325.918 19.465 324.643 19 323.083 19C321.523 19 320.233 19.465 319.213 20.395C318.223 21.295 317.728 22.48 317.728 23.95C317.728 25.42 318.238 26.62 319.258 27.55C320.278 28.48 321.553 28.945 323.083 28.945ZM36.6864 72.205C40.7364 72.205 43.8264 73.135 45.9564 74.995C48.0864 76.825 49.1514 79.645 49.1514 83.455V97H41.1864V93.85C39.9564 96.22 37.5564 97.405 33.9864 97.405C32.0964 97.405 30.4614 97.075 29.0814 96.415C27.7014 95.755 26.6514 94.87 25.9314 93.76C25.2414 92.62 24.8964 91.33 24.8964 89.89C24.8964 87.58 25.7814 85.795 27.5514 84.535C29.3214 83.245 32.0514 82.6 35.7414 82.6H40.6014C40.4514 80.02 38.7264 78.73 35.4264 78.73C34.2564 78.73 33.0714 78.925 31.8714 79.315C30.6714 79.675 29.6514 80.185 28.8114 80.845L25.9314 75.04C27.2814 74.14 28.9164 73.45 30.8364 72.97C32.7864 72.46 34.7364 72.205 36.6864 72.205ZM36.3714 92.005C37.3614 92.005 38.2314 91.765 38.9814 91.285C39.7314 90.805 40.2714 90.1 40.6014 89.17V87.055H36.9114C34.4214 87.055 33.1764 87.88 33.1764 89.53C33.1764 90.28 33.4614 90.88 34.0314 91.33C34.6014 91.78 35.3814 92.005 36.3714 92.005ZM94.5188 72.61L85.8338 97H77.5538L72.9638 83.725L68.1938 97H59.9138L51.2288 72.61H59.3288L64.3238 87.37L69.4988 72.61H76.7888L81.8288 87.505L87.0038 72.61H94.5188ZM121.402 84.85C121.402 84.91 121.357 85.615 121.267 86.965H103.537C103.897 88.225 104.587 89.2 105.607 89.89C106.657 90.55 107.962 90.88 109.522 90.88C110.692 90.88 111.697 90.715 112.537 90.385C113.407 90.055 114.277 89.515 115.147 88.765L119.647 93.445C117.277 96.085 113.812 97.405 109.252 97.405C106.402 97.405 103.897 96.865 101.737 95.785C99.5771 94.705 97.8971 93.205 96.6971 91.285C95.5271 89.365 94.9421 87.19 94.9421 84.76C94.9421 82.36 95.5121 80.215 96.6521 78.325C97.8221 76.405 99.4271 74.905 101.467 73.825C103.507 72.745 105.802 72.205 108.352 72.205C110.782 72.205 112.987 72.715 114.967 73.735C116.947 74.725 118.507 76.18 119.647 78.1C120.817 79.99 121.402 82.24 121.402 84.85ZM108.397 78.28C107.077 78.28 105.967 78.655 105.067 79.405C104.197 80.155 103.642 81.175 103.402 82.465H113.392C113.152 81.175 112.582 80.155 111.682 79.405C110.812 78.655 109.717 78.28 108.397 78.28ZM134.209 97.405C132.169 97.405 130.159 97.18 128.179 96.73C126.199 96.25 124.609 95.635 123.409 94.885L125.974 89.035C127.084 89.725 128.404 90.28 129.934 90.7C131.464 91.09 132.979 91.285 134.479 91.285C135.859 91.285 136.834 91.15 137.404 90.88C138.004 90.58 138.304 90.16 138.304 89.62C138.304 89.08 137.944 88.705 137.224 88.495C136.534 88.255 135.424 88.03 133.894 87.82C131.944 87.58 130.279 87.265 128.899 86.875C127.549 86.485 126.379 85.765 125.389 84.715C124.399 83.665 123.904 82.195 123.904 80.305C123.904 78.745 124.369 77.365 125.299 76.165C126.229 74.935 127.579 73.975 129.349 73.285C131.149 72.565 133.294 72.205 135.784 72.205C137.554 72.205 139.309 72.385 141.049 72.745C142.789 73.105 144.244 73.615 145.414 74.275L142.849 80.08C140.689 78.88 138.349 78.28 135.829 78.28C134.479 78.28 133.489 78.445 132.859 78.775C132.229 79.075 131.914 79.48 131.914 79.99C131.914 80.56 132.259 80.965 132.949 81.205C133.639 81.415 134.779 81.64 136.369 81.88C138.379 82.18 140.044 82.525 141.364 82.915C142.684 83.305 143.824 84.025 144.784 85.075C145.774 86.095 146.269 87.535 146.269 89.395C146.269 90.925 145.804 92.305 144.874 93.535C143.944 94.735 142.564 95.68 140.734 96.37C138.934 97.06 136.759 97.405 134.209 97.405ZM162.193 97.405C159.583 97.405 157.228 96.865 155.128 95.785C153.028 94.705 151.378 93.205 150.178 91.285C149.008 89.365 148.423 87.19 148.423 84.76C148.423 82.36 149.008 80.2 150.178 78.28C151.378 76.36 153.013 74.875 155.083 73.825C157.183 72.745 159.553 72.205 162.193 72.205C164.833 72.205 167.203 72.745 169.303 73.825C171.403 74.875 173.038 76.36 174.208 78.28C175.378 80.17 175.963 82.33 175.963 84.76C175.963 87.19 175.378 89.365 174.208 91.285C173.038 93.205 171.403 94.705 169.303 95.785C167.203 96.865 164.833 97.405 162.193 97.405ZM162.193 90.61C163.693 90.61 164.923 90.1 165.883 89.08C166.843 88.03 167.323 86.59 167.323 84.76C167.323 82.96 166.843 81.55 165.883 80.53C164.923 79.51 163.693 79 162.193 79C160.693 79 159.463 79.51 158.503 80.53C157.543 81.55 157.063 82.96 157.063 84.76C157.063 86.59 157.543 88.03 158.503 89.08C159.463 90.1 160.693 90.61 162.193 90.61ZM211.694 72.205C214.694 72.205 217.079 73.105 218.849 74.905C220.649 76.705 221.549 79.42 221.549 83.05V97H212.999V84.445C212.999 82.735 212.669 81.475 212.009 80.665C211.379 79.855 210.479 79.45 209.309 79.45C208.019 79.45 206.984 79.9 206.204 80.8C205.424 81.7 205.034 83.065 205.034 84.895V97H196.484V84.445C196.484 81.115 195.254 79.45 192.794 79.45C191.474 79.45 190.424 79.9 189.644 80.8C188.864 81.7 188.474 83.065 188.474 84.895V97H179.924V72.61H188.069V75.175C188.969 74.185 190.034 73.45 191.264 72.97C192.524 72.46 193.889 72.205 195.359 72.205C197.069 72.205 198.599 72.52 199.949 73.15C201.299 73.78 202.394 74.74 203.234 76.03C204.194 74.8 205.409 73.855 206.879 73.195C208.349 72.535 209.954 72.205 211.694 72.205ZM252.227 84.85C252.227 84.91 252.182 85.615 252.092 86.965H234.362C234.722 88.225 235.412 89.2 236.432 89.89C237.482 90.55 238.787 90.88 240.347 90.88C241.517 90.88 242.522 90.715 243.362 90.385C244.232 90.055 245.102 89.515 245.972 88.765L250.472 93.445C248.102 96.085 244.637 97.405 240.077 97.405C237.227 97.405 234.722 96.865 232.562 95.785C230.402 94.705 228.722 93.205 227.522 91.285C226.352 89.365 225.767 87.19 225.767 84.76C225.767 82.36 226.337 80.215 227.477 78.325C228.647 76.405 230.252 74.905 232.292 73.825C234.332 72.745 236.627 72.205 239.177 72.205C241.607 72.205 243.812 72.715 245.792 73.735C247.772 74.725 249.332 76.18 250.472 78.1C251.642 79.99 252.227 82.24 252.227 84.85ZM239.222 78.28C237.902 78.28 236.792 78.655 235.892 79.405C235.022 80.155 234.467 81.175 234.227 82.465H244.217C243.977 81.175 243.407 80.155 242.507 79.405C241.637 78.655 240.542 78.28 239.222 78.28ZM294.6 97.54L291.045 94.39C289.575 95.44 287.94 96.25 286.14 96.82C284.34 97.36 282.45 97.63 280.47 97.63C278.1 97.63 275.955 97.255 274.035 96.505C272.115 95.725 270.615 94.66 269.535 93.31C268.455 91.96 267.915 90.445 267.915 88.765C267.915 86.785 268.44 85.06 269.49 83.59C270.54 82.09 272.205 80.725 274.485 79.495C272.475 77.455 271.47 75.34 271.47 73.15C271.47 71.56 271.905 70.15 272.775 68.92C273.645 67.69 274.875 66.745 276.465 66.085C278.085 65.395 279.945 65.05 282.045 65.05C284.955 65.05 287.295 65.74 289.065 67.12C290.865 68.47 291.765 70.3 291.765 72.61C291.765 74.23 291.285 75.67 290.325 76.93C289.395 78.19 287.925 79.375 285.915 80.485L290.505 84.58C291.105 83.26 291.57 81.76 291.9 80.08L298.785 82.15C298.185 84.85 297.21 87.235 295.86 89.305L299.19 92.275L294.6 97.54ZM282.045 70.675C281.175 70.675 280.485 70.9 279.975 71.35C279.495 71.77 279.255 72.325 279.255 73.015C279.255 73.525 279.39 74.02 279.66 74.5C279.96 74.95 280.5 75.55 281.28 76.3C282.48 75.67 283.32 75.085 283.8 74.545C284.31 73.975 284.565 73.39 284.565 72.79C284.565 72.13 284.34 71.62 283.89 71.26C283.47 70.87 282.855 70.675 282.045 70.675ZM281.1 91.105C282.84 91.105 284.445 90.67 285.915 89.8L279.12 83.77C278.13 84.37 277.41 85 276.96 85.66C276.51 86.29 276.285 87.01 276.285 87.82C276.285 88.78 276.72 89.575 277.59 90.205C278.46 90.805 279.63 91.105 281.1 91.105Z" fill="white"/>
<path d="M93.6343 146.888H106.018V160.52H94.1143V197H75.8743V160.52H68.2903V146.888H75.8743V145.544C75.8743 139.208 77.7623 134.184 81.5383 130.472C85.3783 126.76 90.7223 124.904 97.5703 124.904C99.8743 124.904 102.114 125.128 104.29 125.576C106.466 126.024 108.258 126.696 109.666 127.592L105.154 140.456C103.362 139.432 101.538 138.92 99.6823 138.92C97.7623 138.92 96.2583 139.496 95.1703 140.648C94.1463 141.8 93.6343 143.496 93.6343 145.736V146.888ZM167.482 144.968V197H150.106V191.432C148.186 193.544 145.882 195.144 143.194 196.232C140.506 197.32 137.658 197.864 134.65 197.864C127.93 197.864 122.554 195.88 118.522 191.912C114.554 187.944 112.57 181.992 112.57 174.056V144.968H130.81V171.08C130.81 174.984 131.546 177.832 133.018 179.624C134.49 181.416 136.634 182.312 139.45 182.312C142.33 182.312 144.666 181.32 146.458 179.336C148.314 177.288 149.242 174.184 149.242 170.024V144.968H167.482ZM213.119 144.104C219.583 144.104 224.767 146.024 228.671 149.864C232.639 153.704 234.623 159.496 234.623 167.24V197H216.383V170.216C216.383 163.112 213.535 159.56 207.839 159.56C204.703 159.56 202.175 160.584 200.255 162.632C198.399 164.68 197.471 167.752 197.471 171.848V197H179.231V144.968H196.607V150.632C198.655 148.52 201.087 146.92 203.903 145.832C206.719 144.68 209.791 144.104 213.119 144.104ZM243.867 129.8H265.563L261.915 172.52H247.419L243.867 129.8ZM254.715 197.864C251.515 197.864 248.891 196.904 246.843 194.984C244.795 193 243.771 190.6 243.771 187.784C243.771 184.904 244.795 182.536 246.843 180.68C248.891 178.824 251.515 177.896 254.715 177.896C257.915 177.896 260.507 178.824 262.491 180.68C264.539 182.536 265.563 184.904 265.563 187.784C265.563 190.6 264.539 193 262.491 194.984C260.443 196.904 257.851 197.864 254.715 197.864Z" fill="#0E31E7"/>
</svg>
